<svg width="199" height="206" viewBox="0 0 199 206" fill="none" xmlns="http://www.w3.org/2000/svg">
<path d="M166.683 21.2285C168.906 25.6525 169.493 30.6949 170.353 35.5119L170.877 183.063C169.205 195.612 161.463 203.836 148.731 205.209H22.1458C20.7987 204.722 18.6339 204.753 17.2973 204.423C7.56889 202.033 0.969699 192.467 0.262081 182.801L0 18.2146C1.67208 8.02491 8.67487 1.77167 18.7388 0.262081L128.813 0C142.651 1.33661 160.095 8.10354 166.683 21.2285Z" fill="#383C44"/>
<path d="M160.918 186.864L161.966 182.801C160.986 174.609 162.993 118.188 161.442 115.185C161.285 114.875 159.833 114.65 159.476 114.791C159.382 114.828 158.323 116.395 158.297 116.495C157.883 118.157 157.558 142.53 156.986 150.696C155.76 168.277 155.257 188.499 136.282 196.167C141.864 197.179 147.583 196.424 153.055 195.25C147.882 197.557 138.4 196.959 132.482 197.085C96.1732 197.871 59.7754 196.498 23.4563 197.085C15.9607 195.995 10.2788 191.094 9.17285 183.457C20.1121 197.069 28.6245 193.971 41.5398 193.94C63.3816 193.887 85.2235 193.861 107.06 194.464C128.891 192.551 143.515 186.848 147.814 163.407L158.559 66.1754L159.607 41.2777C159.749 40.7012 159.146 40.4915 158.69 40.0984C157.301 38.9033 142.787 32.1678 140.213 27.5185C150.372 34.3116 161.248 32.9016 161.704 33.9395L162.49 182.015C162.092 183.719 161.589 185.244 160.918 186.864Z" fill="#818B9A"/>
<path d="M160.918 186.864C160.21 188.562 159.487 189.663 158.297 191.057C157.379 190.019 158.962 187.162 159.083 184.898C159.408 178.786 156.902 160.126 158.297 150.827L156.986 150.696C157.558 142.53 157.883 118.156 158.297 116.495C158.323 116.395 159.382 114.828 159.476 114.791C159.833 114.65 161.284 114.875 161.442 115.184C162.993 118.188 160.986 174.609 161.966 182.801L160.918 186.864Z" fill="#818B9A"/>
<path d="M158.297 191.057C156.735 192.886 155.299 194.249 153.055 195.25C147.583 196.424 141.865 197.179 136.282 196.167C155.257 188.499 155.76 168.277 156.987 150.696L158.297 150.828C156.903 160.126 159.408 178.786 159.083 184.898C158.963 187.162 157.38 190.019 158.297 191.057Z" fill="#586478"/>
<path d="M135.365 9.69702C144.401 12.1344 153.543 16.4692 158.559 24.7667L158.166 25.1598C147.861 23.1575 141.062 18.4977 135.365 9.69702Z" fill="#818B9A"/>
<path d="M140.213 27.5185C142.787 32.1678 157.301 38.9033 158.69 40.0984C159.146 40.4915 159.749 40.7012 159.607 41.2778L158.559 66.1754L147.814 163.407C143.516 186.848 128.891 192.551 107.06 194.464C85.2236 193.861 63.3818 193.887 41.5399 193.94C28.6246 193.971 20.1122 197.069 9.17296 183.457L8.38672 21.8838C9.01047 14.6137 13.665 9.50832 20.8356 8.12453C37.2208 9.01036 113.586 6.96089 121.737 8.12453C126.507 8.80594 129.206 16.2648 132.351 20.0492C134.044 22.0882 138.085 26.0928 140.213 27.5185Z" fill="#F1F2F2"/>
<path d="M29.2219 85.7004C35.4123 84.6993 120.321 86.4657 135.889 85.7004C141.125 86.4867 140.805 92.6194 135.365 93.3008H32.3669C24.6932 93.3113 23.582 86.6125 29.2219 85.7004Z" fill="#383C44"/>
<path d="M27.6498 107.453C32.8285 106.483 118.655 108.197 133.006 107.453C138.625 108.328 139.128 114.178 134.055 115.053C128.582 115.997 45.5446 114.304 30.7947 115.053C22.5811 114.398 23.142 108.297 27.6498 107.453Z" fill="#383C44"/>
<path d="M30.2701 41.933L137.199 42.195C142.729 43.605 142.724 48.9043 136.937 49.7954H31.5805C25.4478 49.0616 23.325 43.5002 30.2701 41.933Z" fill="#383C44"/>
<path d="M28.9599 63.6856C43.5473 64.6867 126.396 63.0042 131.433 63.9477C135.7 64.7496 136.497 70.6622 131.696 71.548C115.787 70.7146 36.1671 72.6383 28.9599 71.548C23.0316 70.6517 22.4079 64.4351 28.9599 63.6856Z" fill="#383C44"/>
<path d="M31.5806 128.944C43.1751 129.609 89.5005 128.068 95.5283 128.944C100.628 129.688 103.249 135.27 97.1008 136.806C86.691 136.067 34.301 137.152 31.0565 136.544C27.0781 135.8 26.3076 130.679 31.5806 128.944Z" fill="#383C44"/>
<path d="M42.5883 174.546C47.0227 173.597 121.123 175.274 133.268 174.546C138.609 175.851 138.835 181.266 133.006 182.146C126.265 183.163 59.4821 180.951 44.947 181.884C38.4999 180.998 39.2809 175.253 42.5883 174.546Z" fill="#383C44"/>
<path d="M30.5325 153.579C33.1847 153.071 81.8636 153.092 84.5211 153.579C89.1023 154.418 90.0405 160.304 83.7349 161.18C80.2702 161.662 41.0786 160.283 32.105 160.918C25.9146 159.722 26.7323 154.308 30.5325 153.579Z" fill="#383C44"/>
<path d="M144.086 153.302C144.401 153.642 144.621 154.135 144.317 154.785C143.782 155.917 132.859 159.282 131.334 159.602C129.42 160.006 127.381 160.058 125.563 160.493C123.927 160.399 122.36 160.252 120.756 159.958C117.857 159.434 115.022 158.548 112.165 157.851L121.825 156.452C118.932 156.218 116.037 155.985 113.14 155.755C113.696 155.587 114.256 155.424 114.807 155.246C114.765 155.419 115.483 155.445 115.588 155.43C116.668 155.283 124.278 152.767 127.282 152.185C131.706 151.325 136.098 151.058 140.297 151.954C141.272 152.164 143.421 152.573 144.086 153.302Z" fill="#BEBCD3"/>
<path d="M120.756 159.958C120.541 160.399 121.317 160.86 121.527 161.19C121.333 161.19 121.139 161.201 120.945 161.201L120.693 160.839C119.128 160.919 117.562 161 115.997 161.08C114.964 159.172 111.998 160.142 110.032 160.121C109.34 160.116 107.49 160.016 107.432 159.66C106.971 160.787 106.761 159.02 106.473 160.032C106.038 159.565 105.729 160.278 104.402 159.392C103.134 159.487 100.691 160.467 100.335 159.633C100.938 159.419 101.525 159.204 102.128 159.004C102.07 159.183 102.369 159.261 102.505 159.246C105.262 158.942 108.155 157.705 110.913 157.626C113.14 156.536 112.087 156.373 110.551 156.488C111.41 156.132 112.281 156.011 113.145 155.749C116.039 155.984 118.934 156.216 121.831 156.447L112.171 157.846C115.027 158.543 117.868 159.424 120.762 159.953L120.756 159.958Z" fill="#535882"/>
<path d="M146.152 154.392C146.136 154.56 145.953 155.32 145.884 155.529C143.804 161.814 130.39 161.389 126.894 161.41C127.041 160.776 127.822 161.798 127.864 160.587C129.751 160.566 133.509 160.226 135.349 159.801C136.062 159.639 141.125 157.898 141.56 157.663C141.796 157.537 141.759 157.159 142 157.018C142.766 156.562 143.337 156.578 144.333 155.54C144.495 155.367 145.932 153.611 145.46 153.627C145.476 153.621 145.423 153.448 145.743 153.244C146.078 153.574 146.209 153.721 146.147 154.392H146.152Z" fill="#7A7D9E"/>
<path d="M145.743 153.244C145.423 153.448 145.476 153.621 145.46 153.627C144.532 154.041 144.663 152.348 144.087 153.302C143.421 152.573 141.267 152.164 140.297 151.954C136.098 151.058 131.711 151.325 127.282 152.185C124.279 152.767 116.668 155.283 115.588 155.43C115.483 155.445 114.77 155.419 114.807 155.246C123.141 152.599 131.973 149.098 139.946 150.969C140.999 151.215 145.046 152.552 145.743 153.239V153.244Z" fill="#BEBCD3"/>
<path d="M120.945 161.206C112.59 161.216 107.374 161.741 99.0298 160.236C99.077 160.158 99.2971 159.859 99.3128 159.854C99.3653 159.827 100.005 159.759 100.33 159.644C100.686 160.477 103.134 159.497 104.397 159.403C105.729 160.289 106.033 159.576 106.468 160.042C106.756 159.025 106.966 160.797 107.427 159.67C107.485 160.032 109.33 160.126 110.027 160.131C111.992 160.152 114.954 159.183 115.992 161.091C117.557 161.01 119.123 160.93 120.688 160.849L120.94 161.211L120.945 161.206Z" fill="#404871"/>
<path d="M102.122 159.01C104.004 158.396 109.209 156.593 110.551 156.494C112.086 156.378 113.135 156.541 110.912 157.631C108.155 157.71 105.262 158.947 102.505 159.251C102.369 159.266 102.07 159.193 102.127 159.01H102.122Z" fill="#535882"/>
<path d="M126.894 161.41C125.102 161.421 123.325 161.19 121.532 161.195C121.317 160.865 120.541 160.399 120.762 159.964C122.366 160.252 123.933 160.404 125.568 160.498C126.323 160.54 127.072 160.771 127.869 160.593C127.827 161.803 127.046 160.781 126.9 161.416L126.894 161.41Z" fill="#6F708F"/>
<path d="M145.46 153.626C145.932 153.611 144.496 155.367 144.333 155.54C143.337 156.578 142.766 156.562 142.001 157.018C141.76 157.165 141.791 157.537 141.56 157.663C141.125 157.898 136.067 159.633 135.349 159.801C133.504 160.226 129.746 160.566 127.864 160.587C127.067 160.766 126.323 160.54 125.563 160.493C127.382 160.058 129.421 160.006 131.334 159.602C132.859 159.282 143.783 155.917 144.317 154.785C144.621 154.135 144.401 153.642 144.087 153.302C144.663 152.348 144.532 154.041 145.46 153.626Z" fill="#7A7D9E"/>
<path d="M112.716 146.189C113.193 144.501 108.48 148.972 109.801 147.08C109.885 146.964 111.736 145.492 112.029 145.277C112.066 145.25 112.344 145.392 112.385 145.361C113.78 144.323 116.93 141.655 118.12 140.481C118.413 140.192 118.172 139.993 118.256 139.909C119.283 138.887 120.557 138.043 121.391 136.817C121.574 136.885 122.434 137.477 122.376 137.724C122.24 138.353 113.874 145.167 112.716 146.183V146.189Z" fill="#2D3544"/>
<path d="M112.029 145.277C111.735 145.492 109.885 146.959 109.801 147.08C108.475 148.972 113.187 144.501 112.716 146.189C111.851 146.949 111.085 147.861 110.194 148.6C110.173 148.568 109.964 148.422 109.943 148.39C109.618 147.903 109.314 147.394 108.931 146.949C109.775 145.99 111.872 143.741 112.029 145.277Z" fill="#0D0D0F"/>
<path d="M104.78 154.979C104.948 155.335 105.503 155.608 105.257 156.143C104.675 156.462 100.047 159.44 99.8003 159.209L101.42 157.112C102.128 157.301 105.157 155.136 102.798 155.409C102.678 155.262 103.097 155.052 103.113 155.031L104.78 154.974V154.979Z" fill="#454953"/>
<path d="M104.518 154.166C104.869 154.879 104.759 154.942 104.775 154.979L103.108 155.037C103.449 154.607 103.957 154.292 104.298 153.815C104.403 153.873 104.455 154.046 104.513 154.166H104.518Z" fill="#272827"/>
<path d="M182.77 84.9247C181.098 86.2876 179.42 87.6346 177.753 88.9975L177.182 88.5624C173.66 91.7441 169.608 94.5483 166.112 97.5885L166.421 98.186C165.163 99.2343 163.916 100.293 162.668 101.357C162.259 101.394 162.133 100.922 162.097 100.922C161.725 100.891 157.159 105.094 156.415 105.587C156.189 105.409 155.686 104.979 155.519 104.927C161.704 99.5436 167.967 94.0451 174.519 89.3591C177.035 87.1367 179.677 85.0715 182.329 83.0168C184.022 84.432 181.737 84.4844 182.78 84.9247H182.77Z" fill="#454953"/>
<path d="M192.016 75.6941C191.178 76.1868 190.528 76.9888 189.773 77.5653C187.325 79.4314 184.778 81.1192 182.325 83.0166C179.672 85.0713 177.031 87.1365 174.515 89.359C167.963 94.045 161.699 99.5434 155.514 104.927C155.467 104.911 155.419 104.906 155.372 104.895C155.43 104.685 155.225 104.738 155.121 104.685C161.127 99.5592 167.003 94.2861 173.167 89.3433C173.262 89.2699 174.845 88.4994 175.243 88.1796C176.564 87.1365 177.565 85.9781 178.116 85.5536C181.082 83.263 186.361 79.012 189.107 77.1827C189.474 76.9364 191.539 75.5054 191.691 75.4635C191.864 75.4163 191.88 75.6679 192.011 75.6888L192.016 75.6941Z" fill="#7D7C8C"/>
<path d="M187.053 81.4338C185.632 82.6394 184.212 83.7558 182.77 84.93C181.727 84.4897 184.012 84.4373 182.319 83.022C184.772 81.1246 187.32 79.4368 189.768 77.5707C189.883 78.7344 185.878 80.9359 187.053 81.4338Z" fill="#525666"/>
<path d="M177.753 88.9975C173.979 92.069 170.158 95.0673 166.421 98.186L166.112 97.5885C169.608 94.5483 173.66 91.7441 177.182 88.5624L177.753 88.9975Z" fill="#2D3544"/>
<path d="M187.052 81.4338C185.878 80.9358 189.883 78.7291 189.767 77.5707C190.527 76.9941 191.177 76.1921 192.011 75.6994C192.325 75.7466 193.101 75.9248 193.064 76.3232C193.028 76.7163 187.776 80.8152 187.047 81.439L187.052 81.4338Z" fill="#2D3544"/>
<path d="M162.663 101.357C161.683 102.185 157.642 105.833 157.354 106.038C157.212 106.137 157.06 106.033 156.908 106.006C156.887 105.98 156.499 105.661 156.405 105.587C157.154 105.089 161.715 100.891 162.087 100.922C162.123 100.922 162.249 101.394 162.658 101.357H162.663Z" fill="#2D3544"/>
<path d="M196.377 81.3814C196.891 78.9702 196.529 75.4584 194.013 74.2109C191.906 73.1678 190.847 74.2056 192.037 74.9447C193.379 75.7833 196.592 75.8672 195.428 82.2043C188.782 87.8391 182.639 94.0189 176.223 99.9C175.704 100.377 175.196 100.87 174.682 101.336C174.116 101.855 173.534 102.364 172.963 102.883C172.832 103.003 172.706 103.124 172.575 103.244C172.14 103.643 171.684 104.03 171.244 104.434C167.616 107.715 163.905 110.918 160.236 114.152C160.131 113.701 159.633 112.936 159.544 112.637C159.434 112.26 159.12 112.097 159.067 110.195C158.197 108.931 158.444 108.439 157.448 106.882C157.317 106.683 157.06 106.164 156.903 106.001C157.055 106.027 157.201 106.132 157.348 106.033C157.636 105.828 161.683 102.185 162.658 101.352C163.905 100.293 165.153 99.2343 166.411 98.1808C170.153 95.062 173.969 92.0638 177.743 88.9922C179.415 87.6294 181.093 86.2823 182.759 84.9195C184.201 83.7454 185.616 82.6341 187.042 81.4233C187.77 80.8048 193.022 76.7006 193.059 76.3075C193.096 75.9091 192.315 75.7257 192.006 75.6838C191.869 75.6628 191.854 75.4112 191.686 75.4584C191.534 75.4951 189.469 76.9313 189.102 77.1776C186.355 79.0017 181.077 83.2579 178.11 85.5485C177.56 85.9731 176.559 87.1314 175.238 88.1745C174.839 88.489 173.251 89.2595 173.162 89.3382C167.003 94.281 161.122 99.5541 155.115 104.68C154.518 104.371 154.539 104.481 153.978 104.413C153.82 104.392 153.925 103.978 153.055 104.497C155.267 103.365 157.028 101.64 158.921 100.026C159.183 99.8057 159.345 99.5646 159.518 99.4178C160.572 98.4691 161.908 97.6199 162.888 96.6083C163.04 96.451 163.329 96.3305 163.449 96.1418C163.774 95.6281 164.314 92.9916 164.005 92.5198C164.335 91.9328 164.608 92.2577 164.676 92.2263L165.21 92.5041L165.006 94.6322C167.108 92.3888 179.934 83.0115 180.553 82.2305C180.757 81.9737 181.035 81.8269 181.04 81.4443C180.893 80.7262 181.019 79.9714 180.956 79.2481C180.909 78.6924 180.81 78.6453 180.804 78.6138C180.778 78.4461 180.983 78.3046 180.83 77.8695C180.81 77.8119 180.374 77.7018 180.285 76.9889C180.998 76.449 181.737 76.0559 182.429 75.5422C182.859 76.7216 183.493 76.7531 184.044 76.9732C184.479 77.1462 184.683 77.2929 185.181 77.2405C185.123 77.5498 185.422 78.64 185.516 78.6715C185.805 78.7711 190.381 75.4007 190.491 75.1124C190.559 74.929 189.898 72.9948 192.781 72.7222C196.744 72.3501 200.188 76.5119 196.367 81.3814H196.377Z" fill="#0D0D0F"/>
<path d="M196.377 81.3814C196.126 81.7011 195.858 82.1257 195.428 82.2096C196.592 75.8724 193.379 75.7833 192.037 74.9499C192.451 74.1375 193.274 74.2528 194.013 74.2161C196.529 75.4636 196.891 78.9702 196.377 81.3866V81.3814Z" fill="#D2972B"/>
<path d="M184.767 77.4344C185.432 77.8485 183.289 79.3895 182.88 78.1158C182.623 77.3086 184.667 77.3715 184.767 77.4344Z" fill="#191835"/>
<path d="M194.013 74.2161C193.274 74.2528 192.451 74.1374 192.037 74.9499C190.847 74.2056 191.906 73.173 194.013 74.2161Z" fill="#FFFBE7"/>
<path d="M109.943 148.39C108.145 149.302 109.047 149.727 109.005 149.821C108.952 149.942 108.318 150.948 108.276 151C108.129 151.179 105.524 153.448 104.843 154.093C104.832 154.104 104.586 154.166 104.523 154.166C104.465 154.046 104.413 153.873 104.308 153.815C104.858 153.05 105.393 152.143 105.943 151.346C105.865 151.588 106.179 151.451 106.242 151.346C107.542 149.145 109.267 147.693 108.407 147.274C108.669 146.949 108.915 146.97 108.936 146.949C109.319 147.394 109.623 147.903 109.948 148.39H109.943Z" fill="#E8D97A"/>
<path d="M105.938 151.346C106.74 150.183 108.15 147.583 108.402 147.274C109.261 147.693 107.537 149.145 106.237 151.346C106.174 151.456 105.854 151.593 105.938 151.346Z" fill="#908F35"/>
<path d="M110.189 148.6C110.572 149.161 110.876 149.79 111.274 150.361C110.923 150.571 111.107 150.922 110.755 151.289C110.504 150.707 110.043 150.424 109.534 150.099C109.303 149.952 109.199 149.978 108.999 149.821C109.041 149.732 108.14 149.302 109.938 148.39C109.959 148.422 110.168 148.568 110.189 148.6Z" fill="#7B5321"/>
<path d="M104.837 154.093C105.524 153.448 108.124 151.179 108.271 151L109.791 152.185C107.663 153.307 105.529 155.896 104.832 154.093H104.837Z" fill="#221C10"/>
<path d="M109.539 150.099C109.172 150.461 110.341 151.724 110.76 151.289C111.112 150.922 110.928 150.571 111.279 150.361C111.835 151.152 112.501 151.871 112.978 152.714C112.873 152.767 112.768 152.866 112.626 152.929C112.17 152.321 109.33 154.329 107.647 154.607C107.411 154.858 106.913 155.267 106.63 155.419C106.179 155.66 105.697 155.901 105.257 156.148C105.503 155.613 104.948 155.341 104.78 154.984C104.764 154.947 104.874 154.885 104.523 154.172C104.586 154.172 104.827 154.109 104.843 154.098C105.54 155.901 107.673 153.307 109.801 152.19L108.281 151.006C108.323 150.953 108.957 149.947 109.01 149.826C109.209 149.978 109.314 149.957 109.544 150.104L109.539 150.099Z" fill="#D2972B"/>
<path d="M112.621 152.929C110.682 153.868 108.633 154.643 106.625 155.419C106.908 155.267 107.406 154.858 107.642 154.607C109.324 154.329 112.165 152.321 112.621 152.929Z" fill="#604C1E"/>
<path d="M111.573 151.331C112.469 151.273 110.546 153.391 110.205 152.662C110.467 152.363 111.269 151.352 111.573 151.331Z" fill="#8F6B29"/>
<path d="M110.761 151.289C110.341 151.724 109.178 150.461 109.539 150.099C110.048 150.424 110.509 150.707 110.761 151.289Z" fill="#341B0D"/>
<path d="M185.191 77.2353C184.693 77.2878 184.489 77.141 184.054 76.968C184.51 75.4794 186.622 74.3839 184.08 73.671C181.569 72.9687 179.378 75.8935 177.675 77.2668C172.79 81.2032 167.946 85.3127 163.349 89.5793C162.107 90.7325 159.088 93.4581 159.098 94.2077C158.91 94.0766 158.763 93.9404 158.595 93.7884C158.779 93.3533 158.994 93.3061 159.224 93.0336C159.471 92.7453 159.879 92.2264 160.063 92.0272C161.19 90.8321 166.631 86.0465 168.476 84.4006C170.069 82.9749 180.893 73.561 181.7 73.2517C184.725 72.1038 186.921 74.4992 185.191 77.2301V77.2353Z" fill="#604C1E"/>
<path d="M180.835 77.859C177.937 79.9556 164.723 90.6485 163.612 92.2682C163.596 92.2944 163.281 92.3992 163.208 92.698C163.276 93.1593 163.328 93.6887 163.318 94.1499C162.825 94.1342 163.307 93.4056 162.988 93.3218C162.726 93.2536 162.406 93.9455 162.395 94.2338C162.097 93.7359 161.337 95.062 160.43 95.8744L158.422 94.1971C158.291 93.7254 158.585 93.8092 158.595 93.7883C158.763 93.9403 158.905 94.0766 159.098 94.2076C159.172 94.2548 159.455 94.4382 159.492 94.4487C159.523 94.4592 159.638 94.8104 160.1 94.7422C160.362 94.7056 163.528 91.6864 164.01 91.2356C164.062 91.1884 164.691 90.1034 164.738 90.0562C165.037 89.7784 166.557 88.7354 167.123 88.2164C167.37 87.991 167.406 87.5612 167.433 87.5403C168.229 86.8169 170.284 85.4593 170.908 84.909C173.576 82.5607 176.165 80.0605 179.059 77.7489C179.384 77.5445 180.054 77.1671 180.29 76.9889C180.374 77.7018 180.814 77.8066 180.835 77.8695V77.859Z" fill="#3D3215"/>
<path d="M180.809 78.6033C178.267 80.1443 165.629 91.765 164.676 92.2157C164.607 92.2472 164.335 91.9222 164.005 92.5093C163.968 92.4516 163.554 92.5198 163.611 92.2682C164.723 90.6485 177.937 79.9556 180.835 77.8589C180.987 78.294 180.783 78.4355 180.809 78.6033Z" fill="#B49530"/>
<path d="M180.961 79.2428C175.557 83.4046 170.452 88.0854 165.21 92.4988L164.676 92.221C165.63 91.7702 178.267 80.1443 180.809 78.6085C180.815 78.64 180.914 78.6924 180.961 79.2428Z" fill="#352412"/>
<path d="M184.049 76.9678C183.498 76.7477 182.864 76.711 182.434 75.5369C183.084 75.0547 183.341 74.9446 183.802 74.2055C183.897 74.0587 184.069 74.0011 184.08 73.6709C186.622 74.3837 184.51 75.4792 184.054 76.9678H184.049Z" fill="#8F6B29"/>
<path d="M183.802 74.2055C183.346 74.9393 183.089 75.0546 182.434 75.5369C181.742 76.0506 181.003 76.4437 180.29 76.9836C180.054 77.1618 179.383 77.5392 179.058 77.7436C178.131 77.6073 177.675 78.9859 176.663 78.9806C177.418 78.3778 178.43 77.7646 178.943 76.9678C180.448 76.1449 181.58 74.2107 183.802 74.2107V74.2055Z" fill="#DCA831"/>
<path d="M164.005 92.5093C164.314 92.9811 163.769 95.6228 163.449 96.1313C163.051 96.1575 163.297 94.8995 163.318 94.1447C163.329 93.6834 163.281 93.154 163.208 92.6928C163.281 92.394 163.596 92.2839 163.612 92.263C163.554 92.5146 163.968 92.4517 164.005 92.5041V92.5093Z" fill="#454953"/>
<path d="M163.318 94.1501C163.297 94.9049 163.051 96.1629 163.449 96.1367C163.328 96.3254 163.04 96.4512 162.888 96.6032C162.935 95.775 162.369 95.0517 162.395 94.234C162.406 93.9457 162.726 93.2538 162.988 93.3219C163.307 93.4058 162.825 94.1396 163.318 94.1501Z" fill="#0D0D0F"/>
<path d="M157.956 96.4877C157.877 96.2623 157.61 95.4604 157.62 95.3555C157.851 93.7464 158.915 95.5076 159.921 96.4248C158.606 97.6357 158.669 98.5844 157.956 96.4877Z" fill="#0D0D0F"/>
<path d="M176.663 78.9754C172.522 82.2933 168.266 85.5117 164.471 89.2385C164.356 89.3538 164.56 89.5477 164.544 89.5582C162.878 91.1988 161.101 92.7503 159.481 94.4486C159.444 94.4329 159.161 94.2547 159.088 94.2075C159.072 93.458 162.091 90.7323 163.339 89.5792C167.936 85.3125 172.779 81.1978 177.664 77.2666C178.288 77.5339 178.356 77.2823 178.938 76.9678C178.43 77.7646 177.413 78.3778 176.658 78.9806L176.663 78.9754Z" fill="#E8D97A"/>
<path d="M184.08 73.671C184.069 74.0012 183.896 74.0589 183.802 74.2056C181.58 74.2056 180.448 76.145 178.943 76.9627C178.361 77.2772 178.298 77.5288 177.669 77.2615C179.373 75.8882 181.564 72.9634 184.075 73.6657L184.08 73.671Z" fill="#FDF7D1"/>
<path d="M179.059 77.7385C176.165 80.0553 173.571 82.5503 170.908 84.8985C170.284 85.4489 168.229 86.8065 167.433 87.5298C167.407 87.556 167.37 87.9858 167.123 88.206C166.557 88.7249 165.032 89.768 164.739 90.0458C164.686 90.093 164.057 91.178 164.01 91.2251C163.533 91.6759 160.362 94.6951 160.1 94.7318C159.644 94.7999 159.523 94.4487 159.492 94.4383C161.111 92.74 162.888 91.1937 164.555 89.5478C164.566 89.5373 164.361 89.3434 164.482 89.2281C168.277 85.5013 172.528 82.283 176.674 78.965C177.685 78.965 178.141 77.5917 179.069 77.728L179.059 77.7385Z" fill="#987B2D"/>
<path d="M146.555 111.673C146.875 111.929 147.378 112.118 147.483 112.192C148.034 112.569 148.631 112.952 149.166 113.339C149.706 113.727 149.915 113.795 149.952 113.827C149.973 113.843 149.9 113.874 150.314 114.215C150.948 114.739 151.241 115.09 151.787 115.614C152.473 116.28 153.233 117.009 153.836 117.753C154.109 118.088 154.407 118.476 154.633 118.843C154.748 119.027 154.848 119.304 154.926 119.514C154.905 119.525 154.869 119.871 154.612 119.891C154.166 119.923 153.406 119.357 152.924 119.719C149.894 123.183 133.986 136.502 132.875 137.818C132.246 138.557 132.104 139.495 132.01 139.569C131.743 139.778 131.601 139.228 131.266 139.542C131.093 139.705 130.584 140.716 129.415 141.66C126.433 144.066 125.762 143.531 124.446 144.244C123.964 144.506 115.95 150.319 115.557 150.707C115.483 150.78 115.436 151.383 115.321 151.703C115.074 151.991 113.423 152.51 112.978 152.725C112.501 151.881 111.835 151.163 111.279 150.371C110.881 149.805 110.572 149.171 110.194 148.61C111.085 147.876 111.851 146.959 112.716 146.199C113.874 145.182 122.24 138.368 122.376 137.739C122.428 137.488 121.574 136.895 121.39 136.832C121.217 136.769 121.275 136.544 120.982 136.659C120.473 136.864 114.529 143.253 113.172 144.281C112.752 144.6 112.27 145.119 112.008 144.758C114.842 141.871 117.678 138.987 120.515 136.104C120.18 135.37 120.248 134.731 120.704 134.044C120.908 133.735 125.552 129.919 126.349 129.216C126.449 129.127 126.726 129.337 127.161 128.959C129.866 126.585 132.387 123.922 135.082 121.516C137.75 119.131 144.039 114.047 145.638 112.443C146.105 111.977 145.56 111.4 146.209 111.3C146.372 111.4 146.419 111.563 146.571 111.688L146.555 111.673Z" fill="#0D0D0F"/>
<path d="M129.436 131.365C129.311 131.177 129.122 130.977 128.97 130.805C128.807 130.621 128.687 130.401 128.503 130.244C134.626 124.237 141.225 118.749 147.714 113.151C147.834 113.177 149.365 114.037 148.778 114.377C142.079 119.734 135.569 125.369 129.442 131.365H129.436Z" fill="#454953"/>
<path d="M147.714 113.145C141.225 118.744 134.625 124.231 128.503 130.238C128.1 129.898 128.168 129.866 128.142 129.85C131.638 126.747 144.008 115.095 146.566 113.549C146.985 113.297 147.163 113.025 147.714 113.145Z" fill="#7D7C8C"/>
<path d="M129.437 131.365C130.448 132.849 131.177 135.045 131.46 136.801C131.193 137.247 131.172 137.697 130.983 138.19C130.794 138.075 130.684 138.242 130.522 138.232C130.008 136.487 128.352 135.69 127.246 134.301C127.665 133.918 128.121 133.934 128.09 133.598C126.968 133.258 126.638 134.442 126.538 134.432C125.333 134.337 127.487 132.419 125.956 133.394C124.62 133.546 128.362 131.119 128.97 130.799C129.122 130.972 129.311 131.172 129.437 131.36V131.365Z" fill="#E8D97A"/>
<path d="M130.516 138.227C130.396 138.221 130.207 138.169 130.092 138.127C129.505 137.912 129.552 137.629 129.232 137.624C128.435 137.902 128.336 139.154 127.964 139.5C127.56 139.878 126.47 139.61 126.464 140.124C126.444 140.087 126.339 140.166 125.856 139.527C125.998 139.228 126.464 138.892 126.47 138.845C126.48 138.73 126.134 138.431 126.019 138.211L126.648 137.456C126.648 137.456 126.716 137.226 126.894 137.362C126.999 137.446 126.784 137.807 127.046 137.996C127.172 138.085 127.985 138.054 128.021 137.996C128.131 137.839 126.774 136.439 126.632 136.24C126.454 135.994 126.276 135.506 126.124 135.218C126.501 134.904 126.879 134.62 127.245 134.28C128.357 135.669 130.008 136.46 130.521 138.211L130.516 138.227Z" fill="#352412"/>
<path d="M127.24 134.301C126.873 134.636 126.496 134.919 126.119 135.239C125.531 135.726 125.39 135.926 125.348 135.957C125.159 136.114 124.976 136.266 124.787 136.424C124.577 136.602 123.77 136.937 123.665 137.362C123.529 137.247 121.191 136.581 121.013 135.234C121.176 135.281 121.26 135.606 121.301 135.601C121.438 135.59 121.422 135.328 121.474 135.192C122.523 137.661 122.984 135.228 123.928 134.343C124.441 133.86 124.08 134.689 124.2 134.783C124.237 134.814 124.876 134.164 124.881 134.117C124.913 133.871 124.116 134.395 124.714 133.551C125.222 134.086 126.412 134.993 125.568 133.75C125.668 133.635 125.835 133.467 125.956 133.389C127.487 132.414 125.332 134.332 126.538 134.427C126.637 134.432 126.968 133.247 128.089 133.593C128.121 133.929 127.665 133.913 127.245 134.295L127.24 134.301Z" fill="#E8D97A"/>
<path d="M127.853 129.788C127.937 129.824 128.074 129.819 128.136 129.856C128.157 129.872 128.095 129.898 128.498 130.244C128.682 130.401 128.807 130.621 128.965 130.805C128.351 131.119 124.614 133.551 125.951 133.399C125.83 133.478 125.668 133.645 125.563 133.761C125.212 133.247 124.609 132.891 124.231 132.393C125.259 131.544 126.637 130.065 127.848 129.793L127.853 129.788Z" fill="#F8F9FC"/>
<path d="M130.092 138.127C129.525 138.358 129.373 139.684 129.001 140.198C128.786 140.496 126.884 142.132 126.763 141.398C126.569 140.9 126.512 140.213 126.464 140.124C126.47 139.61 127.56 139.878 127.963 139.5C128.336 139.154 128.435 137.902 129.232 137.624C129.552 137.624 129.504 137.912 130.092 138.127Z" fill="#987B2D"/>
<path d="M127.854 129.788C126.643 130.06 125.259 131.538 124.237 132.388C124.221 132.403 124.237 132.304 123.886 132.602C122.685 133.625 122.114 133.494 121.475 135.187C121.422 135.323 121.438 135.585 121.302 135.595C121.26 135.595 121.176 135.276 121.013 135.228C120.819 133.75 125.867 130.38 127.109 129.457C127.995 129.583 127.822 129.767 127.859 129.782L127.854 129.788Z" fill="#C6C138"/>
<path d="M130.978 138.185C129.971 140.79 128.304 140.648 128.331 141.765C127.911 142.048 127.45 142.677 127.172 142.541C126.947 142.2 126.91 141.76 126.769 141.393C126.889 142.126 128.787 140.491 129.007 140.192C129.379 139.679 129.531 138.352 130.097 138.122C130.218 138.164 130.406 138.216 130.522 138.221C130.684 138.232 130.794 138.064 130.983 138.18L130.978 138.185Z" fill="#F4F197"/>
<path d="M126.014 138.216C126.129 138.436 126.475 138.73 126.464 138.85C126.464 138.898 125.993 139.233 125.851 139.532C125.757 139.411 123.891 137.551 123.66 137.362C123.77 136.937 124.572 136.602 124.782 136.424C125.039 137.11 125.673 137.587 126.008 138.216H126.014Z" fill="#8F6B29"/>
<path d="M128.33 141.77C128.309 140.653 129.971 140.795 130.977 138.19C131.166 137.697 131.187 137.246 131.454 136.801C131.528 137.267 131.711 137.734 131.879 138.179C131.795 139.107 129.169 141.204 128.325 141.77H128.33Z" fill="#B49530"/>
<path d="M125.851 136.376C126.014 136.581 126.103 136.995 126.648 137.467L126.019 138.221C125.684 137.592 125.049 137.115 124.792 136.429C124.981 136.271 125.165 136.114 125.353 135.962C125.626 136.361 125.836 136.355 125.857 136.382L125.851 136.376Z" fill="#604C1E"/>
<path d="M126.643 137.461C126.103 136.99 126.009 136.576 125.846 136.371C126.334 136.665 126.208 136.555 126.627 136.256C126.769 136.45 128.126 137.854 128.016 138.012C127.98 138.064 127.162 138.096 127.041 138.012C126.784 137.823 126.999 137.461 126.889 137.377C126.706 137.236 126.653 137.477 126.643 137.472V137.461Z" fill="#8F6B29"/>
<path d="M126.627 136.256C126.208 136.555 126.333 136.665 125.846 136.371C125.825 136.345 125.621 136.35 125.343 135.952C125.385 135.92 125.526 135.721 126.113 135.234C126.265 135.522 126.444 136.01 126.622 136.256H126.627Z" fill="#C3862B"/>
<path d="M124.714 133.551C124.116 134.395 124.908 133.871 124.882 134.117C124.876 134.164 124.237 134.814 124.2 134.783C124.08 134.689 124.441 133.86 123.928 134.343C122.984 135.228 122.523 137.655 121.475 135.192C122.119 133.499 122.685 133.63 123.886 132.608C124.426 132.969 124.672 133.509 124.714 133.556V133.551Z" fill="#F8F9FC"/>
<path d="M124.237 132.387C124.609 132.885 125.212 133.237 125.568 133.755C126.412 134.992 125.228 134.086 124.714 133.556C124.672 133.509 124.426 132.969 123.886 132.608C124.242 132.309 124.221 132.403 124.237 132.393V132.387Z" fill="#8F6B29"/>
<path d="M153.983 104.413C151.509 106.831 149.035 109.251 146.561 111.673C146.409 111.552 146.362 111.384 146.199 111.285C146.944 110.619 147.536 109.77 148.228 109.062C148.584 108.695 149.014 108.36 149.386 107.983C150.02 107.333 150.676 106.651 151.346 106.043C151.677 105.744 152.112 105.304 152.358 104.932L153.06 104.497C153.931 103.983 153.826 104.392 153.983 104.413Z" fill="#3D3215"/>
<path d="M160.242 114.157C160.268 114.267 160.294 114.367 160.315 114.477C160.326 114.519 159.681 114.818 160.499 114.97C160.394 115.111 160.499 115.41 160.294 115.52C160.231 115.557 159.932 115.384 159.796 115.405C159.775 115.405 159.786 115.101 159.387 115.232C159.115 115.321 157.589 117.176 154.806 118.733C155.262 117.559 157.983 116.762 159.078 114.634C159.115 114.566 159.822 114.713 158.821 113.822C159.167 113.402 158.701 113.266 159.55 112.642C159.639 112.941 160.142 113.712 160.242 114.157Z" fill="#B49530"/>
<path d="M159.796 115.405C159.235 116.411 155.687 119.152 154.921 119.509C154.843 119.299 154.743 119.021 154.628 118.838C154.796 118.896 154.796 118.733 154.806 118.728C157.589 117.171 159.115 115.321 159.387 115.226C159.786 115.095 159.775 115.399 159.796 115.399V115.405Z" fill="#352412"/>
<path d="M160.504 114.97C159.685 114.813 160.325 114.519 160.32 114.477C161.433 114.702 160.535 114.928 160.504 114.97Z" fill="#341B0D"/>
<path d="M156.41 105.587C156.504 105.661 156.887 105.98 156.913 106.006C157.065 106.169 157.327 106.688 157.458 106.887C157.322 107.039 157.28 107.071 157.217 107.28C156.981 108.03 156.897 107.941 156.205 108.391C155.319 108.963 154.963 108.805 154.9 108.832C154.57 108.302 153.553 107.364 153.071 107.044C151.933 105.965 154.507 104.696 155.382 104.885C155.43 104.895 155.477 104.906 155.524 104.916C155.692 104.969 156.195 105.404 156.42 105.577L156.41 105.587Z" fill="#F8F9FC"/>
<path d="M159.549 112.637C158.7 113.261 159.167 113.397 158.821 113.816C158.748 113.906 158.658 113.963 158.611 114.068L158.47 114.037C158.947 112.862 158.816 112.684 158.412 112.37C158.386 112.349 157.982 112.144 157.877 112.092C158.134 110.713 155.183 108.732 155.618 110.205C155.603 110.189 155.335 110.1 155.225 109.964C155.152 109.87 155.015 109.728 155.01 109.613C155.246 109.445 155.529 109.22 155.749 109.036L156.279 109.01C155.781 110.247 158.973 107.621 157.212 107.28C157.28 107.071 157.317 107.039 157.453 106.887C158.449 108.444 158.202 108.931 159.073 110.2C159.12 112.097 159.434 112.26 159.549 112.642V112.637Z" fill="#DCA831"/>
<path d="M155.121 104.68C155.225 104.733 155.43 104.68 155.372 104.89C154.492 104.701 151.918 105.97 153.061 107.049C152.657 106.787 152.657 106.651 152.631 106.646C152.432 106.614 152.568 107.102 152.039 107.558C151.472 108.045 150.906 108.428 150.356 108.963C149.916 109.387 149.958 109.44 149.937 109.466C149.067 110.331 148.013 111.007 147.489 112.191C147.384 112.118 146.881 111.929 146.561 111.673C149.035 109.254 151.509 106.835 153.983 104.413C154.544 104.486 154.523 104.371 155.121 104.68Z" fill="#C6C138"/>
<path d="M156.447 111.154C156.064 111.657 154.963 112.438 154.355 112.385C153.957 113.685 152.484 114.409 151.792 115.609C151.252 115.085 150.954 114.734 150.319 114.21C151.389 113.219 152.458 112.275 153.438 111.19C154.13 111.484 155.451 111.521 155.986 110.588C156.158 110.771 156.263 110.986 156.452 111.148L156.447 111.154Z" fill="#7B5321"/>
<path d="M151.221 110.373C151.221 110.373 151.11 110.603 151.221 110.672C151.388 110.776 151.514 110.551 151.608 110.614C151.194 111.793 149.816 112.265 149.161 113.34C148.626 112.952 148.028 112.569 147.478 112.192C148.002 111.002 149.056 110.331 149.926 109.466C150.534 110.105 151.116 110.305 151.215 110.373H151.221Z" fill="#F8F9FC"/>
<path d="M155.744 109.036C155.524 109.22 155.241 109.45 155.005 109.613C154.926 109.67 154.187 109.749 153.391 110.734C153.155 111.028 153.448 111.18 153.433 111.196C152.452 112.281 151.383 113.224 150.314 114.215C149.905 113.879 149.973 113.848 149.952 113.827L152.95 111.306C152.243 111.185 152.148 110.96 151.614 110.614C151.514 110.551 151.394 110.776 151.226 110.672C151.111 110.603 151.236 110.378 151.226 110.373C151.609 110.54 151.556 110.163 151.577 110.158C151.75 110.09 152.316 110.226 152.395 110.2C152.94 110.001 153.317 109.429 154.083 109.094C154.119 109.078 154.056 109.246 154.895 108.837C154.958 108.806 155.32 108.968 156.2 108.397C156.357 108.716 156.163 108.69 155.749 109.041L155.744 109.036Z" fill="#B49530"/>
<path d="M159.078 114.629C157.977 116.757 155.262 117.554 154.806 118.728C154.796 118.728 154.801 118.896 154.628 118.838C154.402 118.476 154.104 118.083 153.831 117.748C155.335 117.113 156.855 116.128 157.836 114.786C157.867 114.744 158.244 114.577 158.465 114.031L158.606 114.063L159.073 114.624L159.078 114.629Z" fill="#F4F197"/>
<path d="M149.952 113.827C149.916 113.801 149.706 113.733 149.166 113.339C149.821 112.26 151.2 111.793 151.614 110.614C152.154 110.96 152.248 111.185 152.95 111.306L149.952 113.827Z" fill="#E8D97A"/>
<path d="M159.078 114.63L158.611 114.068C158.659 113.963 158.748 113.906 158.821 113.817C159.824 114.709 159.115 114.562 159.078 114.63Z" fill="#341B0D"/>
<path d="M153.061 107.049C153.543 107.364 154.565 108.307 154.89 108.837C154.051 109.246 154.114 109.078 154.077 109.094C153.8 108.758 153.37 108.638 153.04 108.397C152.694 108.145 152.379 107.815 152.033 107.558C152.563 107.102 152.426 106.614 152.626 106.646C152.657 106.646 152.652 106.782 153.055 107.049H153.061Z" fill="#987B2D"/>
<path d="M155.744 109.036C156.158 108.685 156.352 108.716 156.195 108.391C156.892 107.941 156.971 108.03 157.207 107.28C158.968 107.626 155.77 110.247 156.274 109.01L155.744 109.036Z" fill="#D2972B"/>
<path d="M157.878 112.092C157.815 112.061 157.537 112.275 157.201 112.082C156.903 111.909 156.725 111.395 156.447 111.154C156.258 110.991 156.148 110.776 155.98 110.593C155.86 110.462 155.75 110.331 155.619 110.205C155.178 108.732 158.135 110.713 157.878 112.092Z" fill="#352412"/>
<path d="M155.619 110.21C155.744 110.336 155.86 110.467 155.98 110.598C155.451 111.531 154.125 111.489 153.433 111.201C153.449 111.185 153.155 111.033 153.391 110.74C153.91 110.782 154.974 110.525 155.225 109.969C155.336 110.105 155.603 110.195 155.619 110.21Z" fill="#946427"/>
<path d="M155.225 109.964C154.974 110.52 153.915 110.776 153.391 110.734C154.193 109.749 154.926 109.67 155.005 109.613C155.016 109.733 155.152 109.875 155.22 109.964H155.225Z" fill="#8F6B29"/>
<path d="M152.039 107.558C152.384 107.815 152.699 108.145 153.045 108.397C152.746 109.088 151.913 109.267 151.504 109.833L150.356 108.963C150.912 108.428 151.478 108.045 152.039 107.558Z" fill="#F8F9FC"/>
<path d="M151.498 109.838C151.43 109.932 151.624 110.042 151.572 110.158C151.551 110.168 151.603 110.546 151.221 110.373C151.121 110.305 150.539 110.105 149.931 109.466C149.952 109.445 149.91 109.393 150.35 108.963L151.498 109.833V109.838Z" fill="#8F6B29"/>
<path d="M157.877 112.092C157.987 112.144 158.391 112.349 158.412 112.37C158.328 113.649 156.709 115.405 157.841 114.786C156.861 116.123 155.34 117.113 153.836 117.748C153.233 117.003 152.473 116.275 151.787 115.609C152.484 114.409 153.951 113.685 154.35 112.385C154.958 112.438 156.064 111.657 156.441 111.154C156.719 111.4 156.897 111.908 157.196 112.081C157.526 112.27 157.804 112.06 157.872 112.092H157.877Z" fill="#593F17"/>
<path d="M158.47 114.037C158.25 114.582 157.872 114.749 157.841 114.791C156.709 115.405 158.328 113.654 158.412 112.375C158.816 112.689 158.947 112.868 158.47 114.042V114.037Z" fill="#7B5321"/>
<path d="M155.645 112.317C158.543 112.758 155.891 114.928 155.105 114.592C154.287 114.246 155.587 113.659 155.645 112.317Z" fill="#221C10"/>
<path d="M154.077 109.094C153.312 109.429 152.935 110.001 152.39 110.2C152.311 110.226 151.75 110.09 151.572 110.158C151.624 110.043 151.43 109.932 151.499 109.838C151.907 109.267 152.741 109.089 153.04 108.402C153.365 108.638 153.8 108.764 154.077 109.099V109.094Z" fill="#E8D97A"/>
</svg>
