<svg width="180" height="206" viewBox="0 0 180 206" fill="none" xmlns="http://www.w3.org/2000/svg">
<path d="M166.683 21.2285C168.906 25.6525 169.493 30.6949 170.353 35.5119L170.877 183.063C169.205 195.612 161.463 203.836 148.731 205.209H22.1458C20.7987 204.722 18.6339 204.753 17.2973 204.423C7.56889 202.033 0.969699 192.467 0.262081 182.801L0 18.2146C1.67208 8.02491 8.67487 1.77167 18.7388 0.262081L128.813 0C142.651 1.33661 160.095 8.10354 166.683 21.2285Z" fill="#383C44"/>
<path d="M160.918 186.864L161.966 182.801C160.986 174.609 162.993 118.188 161.442 115.185C161.285 114.875 159.833 114.65 159.476 114.791C159.382 114.828 158.323 116.395 158.297 116.495C157.883 118.157 157.558 142.53 156.986 150.696C155.76 168.277 155.257 188.499 136.282 196.167C141.864 197.179 147.583 196.424 153.055 195.25C147.882 197.557 138.4 196.959 132.482 197.085C96.1732 197.871 59.7754 196.498 23.4563 197.085C15.9607 195.995 10.2788 191.094 9.17285 183.457C20.1121 197.069 28.6245 193.971 41.5398 193.94C63.3816 193.887 85.2235 193.861 107.06 194.464C128.891 192.551 143.515 186.848 147.814 163.407L158.559 66.1754L159.607 41.2777C159.749 40.7012 159.146 40.4915 158.69 40.0984C157.301 38.9033 142.787 32.1678 140.213 27.5185C150.371 34.3116 161.248 32.9016 161.704 33.9395L162.49 182.015C162.092 183.719 161.589 185.244 160.918 186.864Z" fill="#818B9A"/>
<path d="M160.918 186.863C160.21 188.562 159.487 189.662 158.297 191.057C157.379 190.019 158.962 187.162 159.083 184.898C159.408 178.786 156.902 160.126 158.297 150.827L156.986 150.696C157.558 142.53 157.883 118.156 158.297 116.495C158.323 116.395 159.382 114.828 159.476 114.791C159.833 114.65 161.284 114.875 161.442 115.184C162.993 118.188 160.986 174.609 161.966 182.801L160.918 186.863Z" fill="#818B9A"/>
<path d="M158.297 191.057C156.735 192.886 155.299 194.249 153.055 195.25C147.583 196.424 141.865 197.179 136.282 196.167C155.257 188.499 155.76 168.277 156.987 150.696L158.297 150.828C156.903 160.126 159.408 178.786 159.083 184.898C158.963 187.162 157.38 190.019 158.297 191.057Z" fill="#586478"/>
<path d="M135.365 9.6969C144.401 12.1343 153.543 16.4691 158.559 24.7665L158.166 25.1597C147.861 23.1574 141.062 18.4976 135.365 9.6969Z" fill="#818B9A"/>
<path d="M140.213 27.5184C142.787 32.1677 157.301 38.9032 158.69 40.0983C159.146 40.4914 159.749 40.7011 159.607 41.2777L158.559 66.1753L147.814 163.407C143.516 186.848 128.891 192.551 107.06 194.464C85.2236 193.861 63.3817 193.887 41.5399 193.94C28.6246 193.971 20.1122 197.069 9.17296 183.456L8.38672 21.8837C9.01047 14.6136 13.665 9.50823 20.8356 8.12444C37.2208 9.01027 113.586 6.9608 121.737 8.12444C126.507 8.80585 129.206 16.2647 132.351 20.0491C134.044 22.0881 138.085 26.0927 140.213 27.5184Z" fill="#F1F2F2"/>
<path d="M29.2219 85.7004C35.4123 84.6993 120.321 86.4657 135.889 85.7004C141.125 86.4867 140.805 92.6194 135.365 93.3008H32.3669C24.6932 93.3113 23.582 86.6125 29.2219 85.7004Z" fill="#383C44"/>
<path d="M27.6498 107.453C32.8285 106.483 118.655 108.197 133.006 107.453C138.625 108.328 139.128 114.178 134.055 115.053C128.582 115.997 45.5446 114.304 30.7947 115.053C22.5811 114.398 23.142 108.297 27.6498 107.453Z" fill="#383C44"/>
<path d="M30.2701 41.933L137.199 42.195C142.729 43.605 142.724 48.9043 136.937 49.7954H31.5805C25.4478 49.0616 23.325 43.5002 30.2701 41.933Z" fill="#383C44"/>
<path d="M28.9599 63.6857C43.5473 64.6868 126.396 63.0043 131.433 63.9477C135.7 64.7497 136.497 70.6623 131.696 71.5481C115.787 70.7147 36.1671 72.6383 28.9599 71.5481C23.0316 70.6518 22.4079 64.4352 28.9599 63.6857Z" fill="#383C44"/>
<path d="M31.5806 128.944C43.1751 129.61 89.5005 128.068 95.5283 128.944C100.628 129.688 103.249 135.27 97.1008 136.806C86.691 136.067 34.301 137.152 31.0565 136.544C27.0781 135.8 26.3076 130.679 31.5806 128.944Z" fill="#383C44"/>
<path d="M42.5883 174.546C47.0227 173.597 121.123 175.274 133.268 174.546C138.609 175.851 138.835 181.266 133.006 182.146C126.265 183.163 59.482 180.951 44.947 181.884C38.4999 180.998 39.2809 175.253 42.5883 174.546Z" fill="#383C44"/>
<path d="M30.5325 153.579C33.1847 153.071 81.8636 153.092 84.5211 153.579C89.1023 154.418 90.0405 160.304 83.7349 161.18C80.2702 161.662 41.0786 160.283 32.105 160.918C25.9146 159.722 26.7323 154.308 30.5325 153.579Z" fill="#383C44"/>
<path d="M121.663 153.878C121.385 154.004 121.113 153.705 121.045 153.679C120.856 153.611 119.572 153.26 119.488 153.26L119.425 153.018C119.619 153.097 121.265 153.485 121.338 153.422C121.605 151.839 121.721 151.519 120.688 150.057C120.526 149.989 117.983 151.65 118.067 151.981C117.821 151.677 117.847 151.593 117.784 151.488C120.153 149.816 121.27 149.847 119.545 148.159C118.731 148.726 117.915 149.292 117.098 149.858C117.098 149.858 116.909 149.837 117.129 149.386C117.706 149.087 118.67 148.186 119.409 147.835L118.56 146.278C118.162 146.304 118.036 146.566 117.863 146.666L117.81 146.267C118.403 145.696 118.277 145.303 117.176 144.443C117.014 144.553 116.872 144.758 116.715 144.847C116.573 144.501 116.919 144.501 116.998 144.155C117.124 143.578 116.327 142.483 116.112 142.556C115.546 143.096 114.472 143.61 113.989 144.118L114.44 143.28C114.949 142.944 115.41 142.488 115.971 142.231C116.07 142.09 115.756 141.455 115.677 141.303C115.745 141.199 116.317 140.716 116.311 140.674C116.296 140.386 113.659 136.497 113.518 135.622C113.596 135.574 113.67 135.622 113.937 135.255C115.3 138.609 120.982 147.174 123.23 150.943C123.419 151.64 121.034 151.252 121.653 153.883L121.663 153.878Z" fill="#CCC1D4"/>
<path d="M119.425 153.018C119.241 152.945 118.576 152.709 118.539 152.683C118.156 152.395 118.099 152.012 118.072 151.981C117.988 151.65 120.531 149.989 120.693 150.057C121.721 151.519 121.61 151.839 121.343 153.422C121.27 153.49 119.624 153.097 119.43 153.018H119.425Z" fill="#141113"/>
<path d="M115.682 141.298C115.761 141.45 116.075 142.084 115.976 142.226C115.415 142.483 114.954 142.939 114.445 143.274C114.236 143.411 113.334 144.118 113.172 144.024L112.249 142.378L115.032 140.386C115.263 140.779 115.63 141.199 115.682 141.298Z" fill="#141113"/>
<path d="M115.682 141.298C115.63 141.193 115.263 140.779 115.033 140.386C114.922 140.203 114.781 140.287 114.728 140.208C114.681 140.134 114.88 139.851 113.995 138.698C113.706 138.599 113.633 138.866 113.465 138.939L113.329 138.614C114.026 137.98 112.904 137 112.558 137.063C112.669 136.979 112.564 136.911 112.569 136.906C112.695 136.623 112.616 136.455 112.296 136.256C112.427 136.219 113.298 135.763 113.523 135.627C113.664 136.497 116.301 140.391 116.317 140.68C116.317 140.727 115.745 141.204 115.682 141.309V141.298Z" fill="#CCC1D4"/>
<path d="M116.998 144.155L114.54 146.01C113.24 144.401 113.523 144.611 113.989 144.113C114.466 143.605 115.546 143.091 116.112 142.551C116.322 142.478 117.124 143.573 116.998 144.15V144.155Z" fill="#141113"/>
<path d="M114.729 140.203C112.239 141.597 112.113 143.18 111.19 140.486C111.914 140.061 112.768 139.254 113.471 138.934C113.638 138.856 113.712 138.594 114 138.693C114.886 139.852 114.681 140.135 114.734 140.203H114.729Z" fill="#141113"/>
<path d="M117.129 149.386C117.035 149.433 116.647 149.648 116.6 149.627C115.724 148.133 115.357 148.139 117.863 146.666C118.036 146.566 118.167 146.299 118.56 146.278L119.409 147.835C118.67 148.186 117.706 149.087 117.129 149.386Z" fill="#141113"/>
<path d="M113.329 138.609C113.198 138.725 111.033 140.177 110.892 140.15L109.885 138.583L112.558 137.058C112.904 137 114.026 137.98 113.329 138.609Z" fill="#141113"/>
<path d="M117.784 151.488C117.559 151.126 116.925 150.246 116.883 150.125C116.788 149.837 117.087 149.905 117.098 149.863C117.912 149.297 118.728 148.731 119.545 148.165C121.27 149.853 120.148 149.816 117.784 151.493V151.488Z" fill="#141113"/>
<path d="M117.811 146.262C117.349 146.708 116.217 147.237 115.688 147.824C114.288 146.556 114.666 146.016 116.715 144.847C116.872 144.758 117.014 144.548 117.176 144.443C118.272 145.298 118.398 145.696 117.811 146.267V146.262Z" fill="#141113"/>
<path d="M112.569 136.895L109.759 138.096C107.505 134.411 110.514 136.78 112.296 136.245C112.621 136.445 112.7 136.612 112.569 136.895Z" fill="#18130C"/>
<path d="M127.403 148.401C127.377 148.427 127.345 148.448 127.319 148.474C126.81 148.175 125.615 149.575 124.588 150.272C122.046 147.074 116.212 136.292 113.444 131.968C114.052 131.145 115.211 129.961 116.07 129.368L116.348 129.347C119.944 135.753 124.048 141.859 127.403 148.395V148.401Z" fill="#E6BA5E"/>
<path d="M131.24 149.045C130.705 149.328 130.862 148.123 129.903 148.878C129.363 148.553 128.068 148.322 127.403 148.395C124.048 141.859 119.944 135.753 116.348 129.347L116.07 129.368C116.306 129.206 116.505 129.012 116.773 128.902C116.935 128.87 117.187 129.049 117.349 129.138C118.12 130.406 126.061 136.612 126.197 137.199C120.52 138.174 129.442 147.316 131.234 149.045H131.24Z" fill="#F1E496"/>
<path d="M141.644 156.855C141.99 157.531 142.844 158.527 142.394 159.319C142.388 159.329 142.242 159.251 142.111 159.418C142.058 159.371 142.011 159.282 141.964 159.251C139.112 157.442 131.407 149.784 129.903 148.883C130.857 148.128 130.705 149.334 131.239 149.051C133.132 150.875 136.077 154.214 137.383 150.125C138.798 152.353 140.072 154.806 141.649 156.855H141.644Z" fill="#BB9975"/>
<path d="M124.95 150.848C125.752 150.157 126.538 149.444 127.345 148.752C127.408 148.699 127.314 148.484 127.324 148.474C127.35 148.448 127.382 148.427 127.408 148.401C128.074 148.322 129.368 148.558 129.908 148.883C131.413 149.79 139.113 157.442 141.969 159.251L138.415 162.144C133.782 158.569 129.326 154.743 124.955 150.854L124.95 150.848Z" fill="#3E2B15"/>
<path d="M124.95 150.848C124.604 150.555 124.625 150.314 124.593 150.272C125.615 149.575 126.81 148.175 127.324 148.474C127.314 148.484 127.408 148.699 127.345 148.752C126.538 149.444 125.757 150.157 124.95 150.848Z" fill="#8F6A2C"/>
<path d="M142.111 159.418C141.089 160.713 139.61 161.625 138.447 162.778C137.744 162.202 136.114 161.143 135.197 161.615C133.127 162.679 134.72 164.246 134.751 164.749C134.799 165.446 133.839 166.316 133.158 166.149C132.319 165.944 121.695 156.31 119.797 155.141L119.357 154.638C119.818 154.072 118.482 153.291 119.488 153.26C119.567 153.26 120.856 153.611 121.045 153.679C120.83 153.82 120.908 153.889 121.06 154.035C121.799 154.753 123.891 156.101 124.813 157.133L124.981 156.986C124.232 156.583 124.389 155.891 123.928 156.127C123.372 155.204 122.303 154.78 121.663 153.878C121.045 151.247 123.43 151.629 123.241 150.938C120.987 147.169 115.305 138.604 113.948 135.249C113.89 135.108 113.56 133.352 112.91 132.372C113.056 131.994 113.429 132.005 113.45 131.973C116.212 136.298 122.046 147.08 124.593 150.277C124.625 150.319 124.609 150.565 124.95 150.854C129.326 154.748 133.782 158.569 138.41 162.144L141.964 159.251C142.011 159.282 142.058 159.371 142.111 159.418Z" fill="#18130C"/>
<path d="M133.97 163.512C135.443 165.001 132.429 164.22 131.785 163.051C130.904 161.452 133.729 163.266 133.97 163.512Z" fill="#141113"/>
<path d="M121.045 153.679C121.118 153.705 121.39 154.004 121.663 153.878C122.308 154.78 123.372 155.199 123.927 156.127C124.389 155.891 124.226 156.588 124.981 156.986L124.813 157.133C123.891 156.101 121.799 154.754 121.06 154.035C120.908 153.883 120.83 153.815 121.045 153.679Z" fill="#141113"/>
<path d="M162.642 104.738C162.286 104.707 162.705 105.404 162.82 105.619C162.773 105.561 162.705 105.446 162.632 105.488C161.714 105.97 149.156 117.161 146.907 118.974C146.634 118.623 146.372 118.251 146.105 117.895C145.775 117.449 145.492 116.652 144.926 116.553C144.8 116.217 144.7 115.85 144.601 115.504C144.601 114.87 144.375 114.346 144.758 113.733C145.838 111.998 157.217 102.463 160.105 101.169C161.106 102.353 162.029 104.004 162.642 104.738Z" fill="#CF9D43"/>
<path d="M174.797 114.875C173.272 113.848 171.93 112.255 170.421 111.065C168.78 110.142 164.854 106.651 164.398 106.394C164.319 106.347 164.251 106.452 164.193 106.499C164.057 106.337 164.089 106.117 163.874 105.965L163.706 106.111C165.41 108.407 166.982 110.792 168.832 112.978C168.376 113.271 168.57 113.486 168.56 113.513C168.298 114.121 168.146 114.791 167.732 115.279C167.48 115.08 167.459 114.828 167.386 114.545C167.223 113.916 167.26 113.68 166.935 113.009C166.521 110.698 164.015 107.825 162.831 105.619C162.715 105.404 162.296 104.701 162.652 104.738C163.014 105.168 163.423 105.75 163.737 105.718C164.173 105.598 164.125 103.768 165.347 104.083C166.699 104.434 173.309 112.532 174.808 114.875H174.797Z" fill="#E6BA5E"/>
<path d="M176.92 119.839C174.818 118.293 172.827 116.5 171.013 114.624C168.534 112.055 166.479 109.22 164.188 106.499C164.246 106.452 164.314 106.347 164.393 106.394C164.854 106.651 168.78 110.142 170.416 111.065C171.93 112.255 173.267 113.848 174.792 114.875C175.757 116.385 176.705 118.026 176.92 119.844V119.839Z" fill="#9D7731"/>
<path d="M178.299 120.568L178.131 120.715C177.727 120.442 177.313 120.133 176.92 119.845C176.711 118.026 175.757 116.385 174.792 114.875C173.298 112.532 166.689 104.434 165.331 104.083C164.104 103.768 164.157 105.598 163.722 105.718C163.407 105.745 162.998 105.168 162.637 104.738C162.024 104.004 161.101 102.353 160.1 101.169C159.859 100.88 160 100.791 159.576 100.739C160.21 100.608 160.068 100.456 161.263 100.969C164.943 102.542 170.546 107.846 173.031 111.002C174.462 112.816 177.848 118.403 178.299 120.568Z" fill="#F1E496"/>
<path d="M160.105 101.169C157.217 102.463 145.838 111.998 144.758 113.733C144.375 114.346 144.601 114.87 144.601 115.504C143.972 113.345 143.851 112.611 145.502 110.855C147.468 108.758 157.034 101.268 159.581 100.739C160.011 100.791 159.864 100.88 160.105 101.169Z" fill="#E6BA5E"/>
<path d="M161.08 121.254C158.617 123.524 156.226 125.878 153.668 128.048C153.454 127.822 153.239 127.639 152.998 127.45C155.403 125.495 157.532 123.246 159.822 121.171C159.979 121.029 160.241 120.966 160.65 120.594L161.08 121.254Z" fill="#6C5B30"/>
<path d="M146.11 117.895C146.765 120.101 152.442 126.491 152.667 127.073C152.73 127.23 152.573 127.408 152.442 127.492C151.525 126.501 148.972 123.765 148.495 123.157C148.443 123.089 148.642 122.995 148.589 122.927C147.441 121.443 146.514 120.148 145.68 118.424C145.523 118.099 145.093 116.983 144.931 116.553C145.497 116.652 145.78 117.449 146.11 117.895Z" fill="#6C5B30"/>
<path d="M167.727 115.279C167.014 116.112 162.49 119.955 161.08 121.254L160.65 120.594C162.883 118.571 165.043 116.458 167.381 114.545C167.454 114.828 167.475 115.08 167.727 115.279Z" fill="#9D7731"/>
<path d="M157.028 133.567C157.028 133.567 156.792 133.362 157.007 133.289C157.29 133.195 157.642 133.939 158.161 133.169C159.518 134.196 162.144 135.543 163.858 135.601C167.328 135.721 173.587 128.86 175.835 126.14C177.167 124.53 179.688 121.354 177.67 122.303C175.919 125.338 166.767 134.851 163.89 135.129C161.72 135.339 157.893 132.173 156.342 130.757C155.409 129.903 154.549 128.965 153.668 128.047C156.226 125.877 158.617 123.524 161.08 121.254C162.49 119.954 167.014 116.118 167.726 115.279C168.141 114.791 168.293 114.12 168.555 113.512C169.157 114.886 175.73 121.16 176.821 120.825C176.878 120.804 177.015 120.683 176.994 120.599C174.672 119.074 172.339 116.862 170.447 114.828L171.013 114.629C172.827 116.505 174.818 118.298 176.92 119.844C177.313 120.133 177.727 120.442 178.131 120.714C178.22 120.772 178.294 120.982 178.393 120.929C178.367 120.809 178.325 120.688 178.299 120.568C177.848 118.403 174.462 112.815 173.031 111.002C170.552 107.846 164.948 102.542 161.264 100.969C160.068 100.461 160.21 100.608 159.576 100.739C157.028 101.263 147.462 108.758 145.497 110.855C143.846 112.611 143.971 113.345 144.595 115.504C144.695 115.85 144.794 116.217 144.92 116.553C145.077 116.982 145.513 118.094 145.67 118.424C145.151 118.67 144.092 117.648 144.286 117.187L144.082 117.292C143.363 114.582 142.499 112.873 144.569 110.478C146.419 108.334 154.224 102.416 156.829 100.917C159.287 99.5016 159.964 99.3653 161.856 100.298C168.843 103.732 178.231 114.037 179.258 122.098C177.502 125.851 170.961 132.33 167.742 134.715C163.308 138.001 161.274 135.789 157.013 133.572L157.028 133.567Z" fill="#18130C"/>
<path d="M163.858 135.601L163.889 135.129C166.772 134.851 175.924 125.338 177.67 122.303C179.682 121.349 177.166 124.531 175.835 126.14C173.581 128.86 167.328 135.721 163.858 135.601Z" fill="#45382A"/>
<path d="M168.555 113.513C168.565 113.486 168.371 113.271 168.827 112.978C169.351 113.602 169.891 114.231 170.447 114.823C172.334 116.862 174.666 119.069 176.994 120.594C177.015 120.678 176.878 120.804 176.821 120.819C175.73 121.155 169.163 114.886 168.555 113.507V113.513Z" fill="#5F4C36"/>
<path d="M163.858 135.601C162.149 135.543 159.518 134.196 158.16 133.169C156.892 132.204 156.63 131.638 155.859 130.878C155.996 130.668 155.356 130.275 155.472 130.181C155.608 130.066 156.116 131.14 156.342 130.752C157.893 132.173 161.714 135.333 163.89 135.124L163.858 135.596V135.601Z" fill="#898067"/>
<path d="M164.188 106.499C166.479 109.22 168.533 112.056 171.013 114.624L170.447 114.823C169.891 114.226 169.351 113.597 168.827 112.978C166.977 110.792 165.404 108.407 163.701 106.112L163.868 105.965C164.083 106.117 164.052 106.337 164.188 106.499Z" fill="#301A0E"/>
<path d="M156.342 130.752C156.111 131.14 155.603 130.066 155.472 130.181C155.356 130.275 155.996 130.668 155.86 130.878C154.801 129.84 153.763 128.75 152.746 127.665L152.998 127.445C153.244 127.639 153.454 127.817 153.669 128.042C154.549 128.954 155.404 129.893 156.342 130.752Z" fill="#AAA183"/>
<path d="M178.131 120.715L178.299 120.568C178.325 120.688 178.367 120.809 178.393 120.93C178.294 120.982 178.22 120.772 178.131 120.715Z" fill="#898067"/>
<path d="M152.997 127.45L152.746 127.67C152.746 127.67 152.845 127.927 152.442 127.492C152.578 127.408 152.73 127.23 152.667 127.073C152.436 126.491 146.765 120.101 146.11 117.895C146.372 118.256 146.634 118.623 146.912 118.974C148.699 121.265 151.189 124.085 154.502 122.717C155.844 122.916 158.375 121.637 159.827 121.165C157.537 123.241 155.408 125.49 153.003 127.445L152.997 127.45Z" fill="#3E2B15"/>
<path d="M162.82 105.619C164.005 107.825 166.51 110.698 166.924 113.009C166.222 111.589 166.112 112.302 166.379 113.486C163.659 115.714 157.233 121.585 154.497 122.717C151.184 124.085 148.694 121.26 146.907 118.974C149.155 117.161 161.714 105.97 162.632 105.488C162.705 105.446 162.773 105.561 162.82 105.619Z" fill="#8F6A2C"/>
<path d="M166.924 113.009C167.255 113.675 167.213 113.916 167.375 114.545C165.043 116.458 162.883 118.571 160.645 120.594C160.236 120.966 159.974 121.029 159.817 121.171C158.365 121.642 155.833 122.916 154.491 122.722C157.227 121.59 163.654 115.719 166.374 113.492C166.112 112.302 166.222 111.589 166.919 113.015L166.924 113.009Z" fill="#613F1A"/>
<path d="M152.442 127.492C152.845 127.927 152.73 127.649 152.746 127.67C153.757 128.75 154.8 129.84 155.859 130.883C156.63 131.638 156.892 132.209 158.16 133.174C157.636 133.944 157.285 133.2 157.007 133.294C156.792 133.368 157.033 133.562 157.028 133.572C156.792 133.997 156.106 135.307 155.833 135.512C155.613 135.674 151.697 136.691 150.906 137.006C146.162 138.919 142.221 142.31 138.242 145.434C138.085 146.346 137.094 149.014 137.325 149.727C138.756 152.096 140.381 154.392 141.644 156.856C140.066 154.806 138.793 152.353 137.377 150.125C136.077 154.214 133.132 150.875 131.234 149.051C129.442 147.326 120.52 138.18 126.197 137.205C126.061 136.618 118.12 130.412 117.349 129.143C118.356 129.709 125.075 135.7 126.669 137.236C128.018 137.166 129.368 137.096 130.72 137.027C134.531 133.677 138.284 130.129 140.805 125.663C142.273 123.068 142.367 120.442 144.899 119.997C144.663 119.084 144.328 118.204 144.087 117.292L144.291 117.187C144.097 117.648 145.151 118.676 145.675 118.424C146.508 120.149 147.436 121.443 148.584 122.927C148.636 122.995 148.437 123.089 148.49 123.157C148.967 123.765 151.519 126.501 152.436 127.492H152.442Z" fill="#18130C"/>
<path d="M152.919 131.083C147.562 133.274 145.89 134.699 141.686 138.258C141.025 138.819 137.272 142.315 136.942 142.42C136.617 142.478 136.559 142.153 136.376 142.027C137.87 140.287 139.406 138.573 140.837 136.78C141.701 135.695 143.567 133.368 144.176 132.372C144.904 131.172 144.946 130.516 145.161 130.024C145.219 129.888 145.439 129.311 145.486 129.295C146.199 129.059 146.723 132.566 146.922 126.103C147.195 126.334 147.703 126.659 147.75 126.711C148.343 127.319 149.894 129.264 150.707 128.724C151.419 129.51 152.185 130.323 152.924 131.088L152.919 131.083Z" fill="#3E2B15"/>
<path d="M143.94 126.774C143.914 127.639 143.746 129.751 143.499 130.427C142.755 132.498 137.099 138.982 135.102 140.758C135.081 140.738 135.113 140.931 134.652 140.413C134.358 140.082 133.907 139.637 133.692 139.322C135.868 137.87 141.067 132.068 142.1 130.024C142.393 129.442 142.456 128.797 142.656 128.2C142.907 127.44 143.064 126.648 143.515 125.961C143.536 126.003 143.709 125.898 143.935 126.779L143.94 126.774Z" fill="#CF9D43"/>
<path d="M127.811 143.442C128.503 143.636 129.986 144.842 130.028 143.432C130.054 142.614 128.66 140.334 128.482 139.296L128.409 139.212C129.232 140.271 131.302 144.999 132.235 145.439C133.399 145.984 131.611 143.175 131.564 142.981C132.45 142.944 132.68 145.293 134.117 143.269C134.164 143.201 134.064 143.122 134.012 143.065C134.279 143.364 135.867 144.648 135.909 144.889C133.451 147.84 135.249 151.383 130.93 147.174C129.787 146.058 128.796 144.705 127.811 143.447V143.442Z" fill="#3E2B15"/>
<path d="M145.879 122.549C145.816 122.617 145.617 122.528 145.675 122.654C145.973 123.32 146.482 123.996 146.592 125.563L146.912 126.098C146.712 132.561 146.188 129.049 145.475 129.29C145.428 129.306 145.208 129.887 145.15 130.018H143.966C144.207 129.106 144.175 127.675 143.94 126.774C143.709 125.893 143.541 125.998 143.52 125.956C143.468 125.846 143.536 125.762 143.394 125.474C143.3 125.28 143.321 124.924 143.017 125.212C143.573 124.085 143.924 121.904 145.24 121.48C145.481 121.81 145.648 122.198 145.879 122.549Z" fill="#E6BA5E"/>
<path d="M145.239 121.48C143.924 121.904 143.567 124.085 143.017 125.212C140.412 130.516 137.262 134.212 132.607 137.902C132.57 137.865 131.931 137.65 131.989 137.11C136.601 133.452 139.479 130.039 142.21 124.882C142.65 124.053 143.614 120.652 144.841 120.94C145.171 121.019 145.203 121.427 145.239 121.48Z" fill="#E6C870"/>
<path d="M141.681 138.258C145.884 134.699 147.557 133.273 152.913 131.082C153.076 131.25 154.297 132.078 154.308 132.162C151.236 134.023 147.677 135.218 144.495 136.979C143.515 137.524 142.09 138.987 141.681 138.258Z" fill="#18130C"/>
<path d="M143.395 125.474C141.911 130.49 137.084 135.417 133.074 138.604C133.105 138.4 132.838 138.127 132.681 137.986C132.655 137.96 132.634 137.928 132.607 137.902C137.262 134.212 140.412 130.516 143.017 125.212C143.327 124.924 143.3 125.28 143.395 125.474Z" fill="#9D7731"/>
<path d="M132.104 140.717C131.852 141.346 131.422 142.383 131.559 142.976C131.601 143.17 133.393 145.979 132.23 145.434C131.297 144.994 129.226 140.266 128.403 139.207L128.456 139.013L130.893 138.657C131.339 139.569 131.501 139.862 132.104 140.717Z" fill="#E6BA5E"/>
<path d="M143.52 125.956C143.069 126.643 142.912 127.434 142.661 128.194C140.401 132.419 137.246 135.868 133.383 138.704C133.299 139.013 133.566 139.118 133.697 139.317C133.912 139.632 134.363 140.077 134.657 140.407C134.599 140.46 134.489 140.512 134.526 140.596C134.693 141.01 137.225 143.594 137.943 143.987C137.403 145.13 132.287 138.809 132.298 138.395C132.298 138.237 132.576 138.106 132.681 137.986C132.838 138.127 133.11 138.4 133.074 138.604C137.083 135.417 141.911 130.49 143.394 125.474C143.541 125.767 143.468 125.846 143.52 125.956Z" fill="#4D3015"/>
<path d="M140.831 136.78C139.406 138.573 137.865 140.287 136.371 142.027C135.862 141.681 135.648 141.293 135.254 140.926C136.916 139.322 138.583 137.697 140.092 135.941C140.444 136.429 140.784 136.12 140.826 136.78H140.831Z" fill="#8F6A2C"/>
<path d="M127.093 139.909C128.068 141.236 129.179 144.318 130.029 143.427C129.987 144.836 128.503 143.636 127.811 143.437C127.083 142.504 125.835 141.204 125.495 140.119C126.637 138.803 126.58 139.217 127.093 139.909Z" fill="#8F6A2C"/>
<path d="M130.893 138.657L128.456 139.013L128.403 139.207L128.477 139.291L127.093 139.909C126.585 139.218 126.637 138.809 125.494 140.119C124.719 137.645 128.498 138.117 130.668 137.886C130.951 138.384 130.878 138.615 130.893 138.651V138.657Z" fill="#E6BA5E"/>
<path d="M143.966 130.018C143.426 132.078 141.465 134.348 140.092 135.936C138.583 137.687 136.916 139.312 135.254 140.921C135.149 140.821 135.165 140.811 135.107 140.753C137.104 138.976 142.76 132.492 143.504 130.422C143.746 129.746 143.913 127.633 143.945 126.769C144.181 127.67 144.212 129.101 143.971 130.013L143.966 130.018Z" fill="#301A0E"/>
<path d="M134.007 143.054C134.059 143.112 134.164 143.191 134.111 143.259C132.675 145.282 132.445 142.939 131.559 142.971C131.423 142.378 131.852 141.34 132.104 140.711C132.665 141.508 133.362 142.321 134.007 143.054Z" fill="#9D7731"/>
<path d="M149.003 126.79L147.74 126.706C147.687 126.653 147.184 126.328 146.911 126.098L146.592 125.563C146.482 123.996 145.973 123.32 145.674 122.654C145.617 122.528 145.816 122.617 145.879 122.549C146.927 124.143 147.766 125.322 149.003 126.79Z" fill="#E6C870"/>
<path d="M150.696 128.724C149.889 129.264 148.337 127.319 147.74 126.711L149.003 126.795C149.553 127.445 150.125 128.095 150.696 128.724Z" fill="#BDAB5E"/>
<path d="M137.199 145.68C137.54 145.948 135.925 150.697 135.82 148.595C135.81 148.432 136.895 145.439 137.199 145.68Z" fill="#7E6955"/>
<path d="M154.255 134.809C154.659 134.699 155.057 134.584 155.461 134.495C155.44 134.526 155.534 134.825 155.062 135.139C150.209 136.403 146.828 138.195 142.797 141.141C141.89 141.807 139.815 143.72 139.615 143.783C139.359 143.861 138.913 143.301 138.944 143.185C138.986 143.002 141.502 141.052 141.875 140.769C146.262 137.399 149.035 136.261 154.255 134.814V134.809Z" fill="#45382A"/>
<path d="M155.461 134.495C155.052 134.584 154.654 134.699 154.255 134.809C154.213 133.237 154.575 133.666 155.885 133.452C155.969 133.535 155.55 134.348 155.461 134.489V134.495Z" fill="#80796E"/>
<path d="M140.831 136.78C140.79 136.115 140.444 136.429 140.098 135.942C141.466 134.353 143.426 132.084 143.971 130.024H145.156C144.941 130.516 144.899 131.172 144.17 132.372C143.568 133.368 141.696 135.7 140.831 136.78Z" fill="#9D7731"/>
<path d="M133.697 139.317C133.561 139.118 133.299 139.008 133.383 138.704C137.246 135.868 140.401 132.419 142.661 128.194C142.461 128.792 142.398 129.437 142.105 130.018C141.072 132.063 135.873 137.865 133.697 139.317Z" fill="#9D7731"/>
<path d="M130.023 143.427C129.174 144.318 128.068 141.236 127.088 139.909L128.472 139.291C128.65 140.334 130.044 142.614 130.018 143.427H130.023Z" fill="#E6BA5E"/>
</svg>
